<svg xmlns="http://www.w3.org/2000/svg" xmlns:xlink="http://www.w3.org/1999/xlink" width="412.561" height="88.501" viewBox="0 0 412.561 88.501"><defs><linearGradient id="linear-gradient" x1=".023" x2="1" y1=".811" y2=".808" gradientUnits="objectBoundingBox"><stop offset="0" stop-color="#4cdfe8" stop-opacity=".051"/><stop offset="1" stop-color="#7947f7" stop-opacity=".051"/></linearGradient></defs><g id="Group_6" data-name="Group 6" transform="translate(-346.353 -453.956)"><g id="Frame_641" data-name="Frame 641" opacity=".4" transform="translate(376.383 529.457)"><text id="Jan" font-family="SegoeUI, Segoe UI" font-size="10" transform="translate(0 -1)"><tspan x="0" y="11">Jan</tspan></text><text id="Feb" font-family="SegoeUI, Segoe UI" font-size="10" transform="translate(32 -1)"><tspan x="0" y="11">Feb</tspan></text><text id="Mar" font-family="SegoeUI, Segoe UI" font-size="10" transform="translate(65 -1)"><tspan x="0" y="11">Mar</tspan></text><text id="Apr" font-family="SegoeUI, Segoe UI" font-size="10" transform="translate(99 -1)"><tspan x="0" y="11">Apr</tspan></text><text id="May" font-family="SegoeUI, Segoe UI" font-size="10" transform="translate(132 -1)"><tspan x="0" y="11">May</tspan></text><text id="Jun" font-family="SegoeUI, Segoe UI" font-size="10" transform="translate(167 -1)"><tspan x="0" y="11">Jun</tspan></text><text id="Jul" font-family="SegoeUI, Segoe UI" font-size="10" transform="translate(200 -1)"><tspan x="0" y="11">Jul</tspan></text><text id="Aug" font-family="SegoeUI, Segoe UI" font-size="10" transform="translate(229 -1)"><tspan x="0" y="11">Aug</tspan></text><text id="Sep" font-family="SegoeUI, Segoe UI" font-size="10" transform="translate(263 -1)"><tspan x="0" y="11">Sep</tspan></text><text id="Oct" font-family="SegoeUI, Segoe UI" font-size="10" transform="translate(296 -1)"><tspan x="0" y="11">Oct</tspan></text><text id="Nov" font-family="SegoeUI, Segoe UI" font-size="10" transform="translate(329 -1)"><tspan x="0" y="11">Nov</tspan></text><text id="Dec" font-family="SegoeUI, Segoe UI" font-size="10" transform="translate(363 -1)"><tspan x="0" y="11">Dec</tspan></text></g><g id="Frame_642" data-name="Frame 642" opacity=".4" transform="translate(346.353 454.956)"><text id="_400k" data-name="400k" font-family="SegoeUI, Segoe UI" font-size="10" transform="translate(0 -1)"><tspan x="3.857" y="11">400k</tspan></text><text id="_300k" data-name="300k" font-family="SegoeUI, Segoe UI" font-size="10" transform="translate(0 18.471)"><tspan x="3.857" y="11">300k</tspan></text><text id="_200k" data-name="200k" font-family="SegoeUI, Segoe UI" font-size="10" transform="translate(0 37.941)"><tspan x="3.857" y="11">200k</tspan></text><text id="_100k" data-name="100k" font-family="SegoeUI, Segoe UI" font-size="10" transform="translate(2 57.412)"><tspan x="1.857" y="11">100k</tspan></text></g><g id="Group_701" data-name="Group 701"><g id="Group_642" data-name="Group 642"><path id="Vector_640" fill="none" stroke="#dce3eb" stroke-dasharray="1.894 2.525" stroke-linecap="round" stroke-width=".631" d="M0,0H378.214" data-name="Vector 640" transform="translate(379 519.671)"/><path id="Vector_641" fill="none" stroke="#dce3eb" stroke-dasharray="1.894 2.525" stroke-linecap="round" stroke-width=".631" d="M0,0H378.214" data-name="Vector 641" transform="translate(379 500.099)"/><path id="Vector_642" fill="none" stroke="#dce3eb" stroke-dasharray="1.894 2.525" stroke-linecap="round" stroke-width=".631" d="M0,0H378.214" data-name="Vector 642" transform="translate(379 480.526)"/><path id="Vector_643" fill="none" stroke="#dce3eb" stroke-dasharray="1.894 2.525" stroke-linecap="round" stroke-width=".631" d="M0,0H378.214" data-name="Vector 643" transform="translate(379 460.954)"/></g><g id="Group_641" data-name="Group 641"><path id="Vector_644" fill="url(#linear-gradient)" d="M0,47.915l12.264-2.6,8.76-20.163H36.355l6.57,17.778,14.017-5.854H68.769l5.256-4.119h12.7l8.76,19.3,6.57-13.009h15.769l18.4-15.61H149.8l17.521,9.323h11.388L189.224,4.119,201.05,21.247h14.893l12.264-7.805H245.29L263.249,0l10.074,15.394,12.264,12.575,18.835-4.77,14.893,5.2L338.588,14.96l15.769,13.009,22.777-13.876V57.455H0Z" data-name="Vector 644" transform="translate(381.455 462.532)"/><path id="Vector_639" fill="none" stroke="#4cdfe8" stroke-width="1.263" d="M0,47.476,12.264,44.9l8.76-19.979H36.355l6.57,17.616,14.017-5.8H68.769l5.256-4.082h12.7l8.76,19.119,6.57-12.889h15.769l18.4-15.467H149.8l17.521,9.237h11.388L189.224,4.082,201.05,21.053h14.893l12.264-7.734H245.29L263.249,0l10.074,15.252,12.264,12.46,18.835-4.726,14.893,5.156,19.273-13.319,15.769,12.889,22.777-13.749" data-name="Vector 639" transform="translate(381.455 462.532)"/></g></g></g></svg>