<svg xmlns="http://www.w3.org/2000/svg" xmlns:xlink="http://www.w3.org/1999/xlink" width="133.732" height="127.066" viewBox="0 0 133.732 127.066">
  <defs>
    <linearGradient id="linear-gradient" x1="0.868" y1="0.053" x2="0.184" y2="0.895" gradientUnits="objectBoundingBox">
      <stop offset="0.005" stop-color="#d320c1"/>
      <stop offset="0.32" stop-color="#c624c6"/>
      <stop offset="0.971" stop-color="#1461ff"/>
    </linearGradient>
    <linearGradient id="linear-gradient-2" x1="0.986" y1="0.996" x2="0" gradientUnits="objectBoundingBox">
      <stop offset="0.005" stop-color="#d320c1"/>
      <stop offset="0.498" stop-color="#c624c6"/>
      <stop offset="0.971" stop-color="#1461ff"/>
    </linearGradient>
  </defs>
  <g id="Group_5" data-name="Group 5" transform="translate(-822.817 -549.5)">
    <g id="Group_4" data-name="Group 4">
      <g id="Group_3" data-name="Group 3">
        <g id="Group_2" data-name="Group 2">
          <g id="Group_1" data-name="Group 1">
            <circle id="Ellipse_13" data-name="Ellipse 13" cx="56.013" cy="56.013" r="56.013" transform="translate(832.854 561.429)" fill="#e9eff6"/>
            <path id="Ellipse_11" data-name="Ellipse 11" d="M47.715,0A47.715,47.715,0,1,1,0,47.715,47.715,47.715,0,0,1,47.715,0Z" transform="translate(841.671 569.208)" fill="#fff"/>
            <text id="_300k" data-name="300k" transform="translate(862.789 597.472)" fill="#1c1e2f" font-size="22" font-family="Gilroy-Bold, Gilroy" font-weight="700"><tspan x="0" y="21">300k</tspan></text>
            <text id="Total_Events" data-name="Total Events" transform="translate(872.234 625.221)" fill="#475799" font-size="6" font-family="Gilroy-Bold, Gilroy" font-weight="700"><tspan x="0.353" y="6">Total Events</tspan></text>
            <path id="Ellipse_12" data-name="Ellipse 12" d="M7.9,0A48.752,48.752,0,0,0,48.373,75.357l.047-6.038A42.713,42.713,0,0,1,12.961,3.3Z" transform="translate(840.634 590.835)" fill="url(#linear-gradient)"/>
            <path id="Ellipse_13-2" data-name="Ellipse 13" d="M25.932,12.966A12.966,12.966,0,1,1,12.966,0,12.966,12.966,0,0,1,25.932,12.966Z" transform="translate(876.419 650.634)" fill="rgba(255,255,255,0.2)"/>
            <circle id="Ellipse_12-2" data-name="Ellipse 12" cx="4.668" cy="4.668" r="4.668" transform="translate(884.717 658.932)" fill="#fff"/>
            <path id="Ellipse_13-3" data-name="Ellipse 13" d="M55.4,59.55A58.606,58.606,0,0,0,39.748,18.637,58.606,58.606,0,0,0,.106,0L0,1.882A56.721,56.721,0,0,1,38.367,19.919a56.721,56.721,0,0,1,15.145,39.6Z" transform="translate(891.03 559.966)" fill="url(#linear-gradient-2)"/>
            <g id="Ellipse_12-3" data-name="Ellipse 12" transform="translate(884.199 556.243)" fill="#fff" stroke="#2458ff" stroke-width="1.556">
              <circle cx="5.186" cy="5.186" r="5.186" stroke="none"/>
              <circle cx="5.186" cy="5.186" r="4.408" fill="none"/>
            </g>
            <circle id="Ellipse_14" data-name="Ellipse 14" cx="4.149" cy="4.149" r="4.149" transform="translate(940.731 613.293)" fill="#fff"/>
            <path id="Vector_6" data-name="Vector 6" d="M12.447,105.8c.207-.207,1.469-1.3,2.075-1.815m-7.78-7.261,2.593-1.3M2.853,86.872c.207,0,1.988-.519,2.853-.778M.778,76.758,3.63,76.24M0,66.386a9.012,9.012,0,0,1,2.853,0M1.037,55.753l2.593.519M3.371,45.64l2.593.778M7.52,35.786l2.334,1.3M12.966,26.71,15.3,28.525m4.927-9.335L22.042,21m6.224-8.558,1.556,2.075M37.342,7l1.3,2.334m8.3-6.224.778,2.593M57.05.778l.519,2.593M66.9,0V2.853M77.277.778l-.519,2.593M87.65,3.112a15.13,15.13,0,0,1-1.037,2.853m10.632,1.3-1.3,2.593m10.373,3.112L104.505,15.3m9.595,4.408a13.313,13.313,0,0,1-2.075,2.075m9.076,5.964-2.334,1.815m7.78,7.261-2.593,1.3m6.483,8.558-2.853.778m5.186,9.335-2.853.519m3.63,9.854H130.7M132.512,77.8l-2.852-.519m.778,10.891-3.112-1.3m-1.3,10.891-2.593-1.3m-2.853,10.113-2.334-1.556" transform="translate(823 549.5)" fill="none" stroke="#c7cbdc" stroke-width="0.519"/>
          </g>
        </g>
      </g>
    </g>
  </g>
</svg>
